<svg width="48" height="46" viewBox="0 0 48 46" fill="none" xmlns="http://www.w3.org/2000/svg">
<path d="M46.9099 22.8049C46.9099 34.9716 36.722 44.8742 24.105 44.8742C11.488 44.8742 1.3001 34.9716 1.3001 22.8049C1.3001 10.6382 11.488 0.735642 24.105 0.735642C36.722 0.735642 46.9099 10.6382 46.9099 22.8049Z" stroke="#7D7AD8" stroke-width="1.47128"/>
<path d="M29.2182 24.1321L29.8288 20.1549H26.0123V17.5739C26.0123 16.486 26.5452 15.4249 28.2547 15.4249H29.9895V12.039C29.9895 12.039 28.4154 11.7705 26.9099 11.7705C23.7672 11.7705 21.713 13.6757 21.713 17.1241V20.1556H18.2192V24.1328H21.713V33.7479H26.0123V24.1328L29.2182 24.1321Z" fill="url(#paint0_linear_551_7)"/>
<defs>
<linearGradient id="paint0_linear_551_7" x1="24.1044" y1="11.7705" x2="24.1044" y2="33.7479" gradientUnits="userSpaceOnUse">
<stop stop-color="#7D7AD8"/>
<stop offset="1" stop-color="#7D7AD8" stop-opacity="0"/>
</linearGradient>
</defs>
</svg>
