<svg width="48" height="46" viewBox="0 0 48 46" fill="none" xmlns="http://www.w3.org/2000/svg">
<path d="M47.0603 22.8049C47.0603 34.9716 36.8724 44.8742 24.2554 44.8742C11.6384 44.8742 1.45049 34.9716 1.45049 22.8049C1.45049 10.6382 11.6384 0.735642 24.2554 0.735642C36.8724 0.735642 47.0603 10.6382 47.0603 22.8049Z" stroke="#7D7AD8" stroke-width="1.47128"/>
<path d="M24.2533 20.1061C22.3621 20.1061 20.8189 21.6494 20.8189 23.5405C20.8189 25.4316 22.3621 26.9749 24.2533 26.9749C26.1444 26.9749 27.6876 25.4316 27.6876 23.5405C27.6876 21.6494 26.1444 20.1061 24.2533 20.1061ZM34.5539 23.5405C34.5539 22.1183 34.5667 20.709 34.4869 19.2894C34.407 17.6404 34.0308 16.177 32.8251 14.9713C31.6167 13.7629 30.1559 13.3893 28.507 13.3095C27.0848 13.2296 25.6754 13.2425 24.2558 13.2425C22.8336 13.2425 21.4243 13.2296 20.0047 13.3095C18.3558 13.3893 16.8924 13.7655 15.6866 14.9713C14.4782 16.1796 14.1047 17.6404 14.0248 19.2894C13.9449 20.7116 13.9578 22.1209 13.9578 23.5405C13.9578 24.9601 13.9449 26.372 14.0248 27.7916C14.1047 29.4405 14.4808 30.904 15.6866 32.1097C16.8949 33.3181 18.3558 33.6917 20.0047 33.7715C21.4269 33.8514 22.8362 33.8385 24.2558 33.8385C25.678 33.8385 27.0873 33.8514 28.507 33.7715C30.1559 33.6917 31.6193 33.3155 32.8251 32.1097C34.0334 30.9014 34.407 29.4405 34.4869 27.7916C34.5693 26.372 34.5539 24.9627 34.5539 23.5405ZM24.2533 28.8248C21.329 28.8248 18.969 26.4648 18.969 23.5405C18.969 20.6162 21.329 18.2562 24.2533 18.2562C27.1775 18.2562 29.5375 20.6162 29.5375 23.5405C29.5375 26.4648 27.1775 28.8248 24.2533 28.8248ZM29.754 19.2739C29.0712 19.2739 28.5198 18.7226 28.5198 18.0398C28.5198 17.357 29.0712 16.8057 29.754 16.8057C30.4367 16.8057 30.9881 17.357 30.9881 18.0398C30.9883 18.2019 30.9565 18.3625 30.8945 18.5123C30.8326 18.6621 30.7417 18.7983 30.6271 18.9129C30.5124 19.0275 30.3763 19.1184 30.2265 19.1804C30.0766 19.2423 29.9161 19.2741 29.754 19.2739Z" fill="url(#paint0_linear_551_8)"/>
<defs>
<linearGradient id="paint0_linear_551_8" x1="24.256" y1="13.2417" x2="24.256" y2="33.8393" gradientUnits="userSpaceOnUse">
<stop stop-color="#7D7AD8"/>
<stop offset="1" stop-color="#7D7AD8" stop-opacity="0"/>
</linearGradient>
</defs>
</svg>
