<svg width="42" height="42" viewBox="0 0 42 42" fill="none" xmlns="http://www.w3.org/2000/svg">
<path d="M16.8994 16.252L16.9008 15.5387C16.9012 15.4186 16.8659 15.3012 16.7994 15.2012C16.7329 15.1012 16.6382 15.0233 16.5273 14.9772C16.4165 14.9311 16.2944 14.9191 16.1767 14.9425C16.0589 14.9659 15.9508 15.0238 15.866 15.1088L10.7604 20.2144C10.7042 20.2708 10.6596 20.3377 10.6293 20.4114C10.599 20.485 10.5835 20.5639 10.5837 20.6436C10.5839 20.7232 10.5998 20.8021 10.6305 20.8756C10.6612 20.9491 10.7061 21.0158 10.7626 21.0719L15.8693 26.1786C15.9538 26.2644 16.062 26.3231 16.1801 26.3469C16.2981 26.3708 16.4206 26.3588 16.5318 26.3125C16.6429 26.2662 16.7377 26.1877 16.8039 26.0871C16.8701 25.9866 16.9048 25.8685 16.9034 25.7481C16.9038 25.588 16.9676 25.4346 17.0808 25.3213C17.194 25.2081 17.3474 25.1444 17.5075 25.1439L28.3869 25.1297C28.4664 25.1297 28.545 25.114 28.6184 25.0837C28.6918 25.0533 28.7585 25.0087 28.8147 24.9525C28.8709 24.8964 28.9154 24.8297 28.9458 24.7563C28.9762 24.6829 28.9918 24.6042 28.9918 24.5248L28.9896 23.5369C28.9887 23.4166 29.0237 23.2988 29.0901 23.1985C29.1565 23.0982 29.2513 23.02 29.3623 22.9739C29.4734 22.9277 29.5957 22.9157 29.7137 22.9395C29.8316 22.9632 29.9398 23.0215 30.0244 23.107L35.1289 28.2115C35.2424 28.3251 35.3064 28.4791 35.3066 28.6397C35.3069 28.8003 35.2435 28.9544 35.1304 29.0684L30.0248 34.174C29.9398 34.2584 29.8317 34.3159 29.7141 34.339C29.5965 34.3622 29.4747 34.35 29.3641 34.304C29.2534 34.258 29.1588 34.1803 29.0922 34.0807C29.0257 33.981 28.9901 33.8639 28.99 33.744L28.9885 33.0557C28.9903 32.9759 28.9759 32.8967 28.9462 32.8226C28.9165 32.7486 28.8721 32.6814 28.8157 32.625C28.7593 32.5686 28.6921 32.5242 28.6181 32.4945C28.544 32.4648 28.4648 32.4504 28.385 32.4522L10.0769 32.4515C9.9166 32.4504 9.76322 32.3862 9.64988 32.2728C9.53655 32.1595 9.47237 32.0061 9.47122 31.8459L9.47038 9.43668C9.47004 9.35696 9.48549 9.27795 9.51583 9.20423C9.54618 9.13051 9.59083 9.06353 9.6472 9.00716C9.70358 8.95079 9.77056 8.90614 9.84428 8.87579C9.918 8.84544 9.997 8.82999 10.0767 8.83034L41.0959 8.83808C41.2561 8.83694 41.4095 8.77278 41.5228 8.65945C41.6362 8.54612 41.7003 8.39274 41.7015 8.23247L41.6968 0.934112C41.6962 0.773675 41.6322 0.619978 41.5187 0.506527C41.4053 0.393075 41.2516 0.329067 41.0911 0.328454L0.932583 0.329155C0.772146 0.329755 0.618455 0.393752 0.505012 0.507195C0.391568 0.620639 0.327571 0.77433 0.326971 0.934767L0.32847 41.0911C0.329082 41.2516 0.39309 41.4053 0.506541 41.5187C0.619992 41.6322 0.77369 41.6962 0.934127 41.6968L41.0898 41.6976C41.2499 41.6971 41.4033 41.6333 41.5165 41.5201C41.6297 41.4069 41.6935 41.2535 41.6939 41.0934L41.693 17.4686C41.6925 17.3083 41.6286 17.1547 41.5153 17.0414C41.4019 16.9281 41.2484 16.8642 41.0881 16.8636L17.5072 16.8628C17.4275 16.8631 17.3485 16.8476 17.2748 16.8173C17.201 16.7869 17.134 16.7423 17.0777 16.6859C17.0213 16.6295 16.9766 16.5625 16.9463 16.4888C16.9159 16.4151 16.9005 16.3361 16.9008 16.2564L16.8994 16.252Z" fill="white"/>
</svg>
