<svg width="48" height="46" viewBox="0 0 48 46" fill="none" xmlns="http://www.w3.org/2000/svg">
<path d="M46.76 22.8049C46.76 34.9716 36.5721 44.8742 23.9551 44.8742C11.3381 44.8742 1.15019 34.9716 1.15019 22.8049C1.15019 10.6382 11.3381 0.735642 23.9551 0.735642C36.5721 0.735642 46.76 10.6382 46.76 22.8049Z" stroke="#7D7AD8" stroke-width="1.47128"/>
<path d="M10.7182 35.3107L12.5085 28.7323C11.3288 26.7102 10.7091 24.4103 10.7129 22.0692C10.7129 14.7559 16.6412 8.82764 23.9545 8.82764C31.2678 8.82764 37.196 14.7559 37.196 22.0692C37.196 29.3825 31.2678 35.3107 23.9545 35.3107C21.6144 35.3145 19.3155 34.6952 17.294 33.5165L10.7182 35.3107ZM19.1756 15.8563C19.0046 15.8669 18.8375 15.9119 18.6843 15.9887C18.5407 16.07 18.4096 16.1717 18.295 16.2906C18.1361 16.4402 18.0461 16.57 17.9494 16.6958C17.46 17.3327 17.1968 18.1145 17.2013 18.9177C17.2039 19.5665 17.3734 20.1982 17.6382 20.7887C18.1798 21.9831 19.071 23.2477 20.2481 24.4196C20.5315 24.7016 20.8083 24.985 21.1062 25.2485C22.5673 26.5349 24.3083 27.4625 26.191 27.9577L26.9444 28.0729C27.1894 28.0862 27.4343 28.0676 27.6806 28.0557C28.0663 28.0358 28.4428 27.9314 28.7837 27.7498C28.9571 27.6605 29.1263 27.5633 29.2908 27.4585C29.2908 27.4585 29.3477 27.4214 29.4563 27.3393C29.6351 27.2069 29.745 27.1129 29.8933 26.958C30.0032 26.8441 30.0985 26.7104 30.1714 26.5581C30.2747 26.3422 30.3779 25.9304 30.4203 25.5875C30.4521 25.3253 30.4428 25.1823 30.4388 25.0936C30.4336 24.9519 30.3157 24.8049 30.1873 24.7427L29.4166 24.3971C29.4166 24.3971 28.2646 23.8952 27.5615 23.5748C27.4873 23.5424 27.4079 23.524 27.3271 23.5205C27.2365 23.5112 27.1449 23.5214 27.0586 23.5504C26.9723 23.5794 26.8932 23.6265 26.8266 23.6886V23.686C26.8199 23.686 26.7312 23.7615 25.7738 24.9214C25.7189 24.9953 25.6432 25.0511 25.5564 25.0817C25.4696 25.1124 25.3757 25.1165 25.2866 25.0936C25.2003 25.0705 25.1158 25.0413 25.0336 25.0062C24.8695 24.9373 24.8125 24.9108 24.7 24.8618L24.6933 24.8592C23.9358 24.5284 23.2344 24.0817 22.6144 23.535C22.4476 23.3894 22.2926 23.2305 22.1337 23.0769C21.6128 22.578 21.1588 22.0136 20.7831 21.3978L20.705 21.272C20.6489 21.1875 20.6035 21.0963 20.5699 21.0006C20.5196 20.8059 20.6507 20.6497 20.6507 20.6497C20.6507 20.6497 20.9725 20.2975 21.1221 20.1068C21.2467 19.9483 21.3629 19.7835 21.4703 19.6129C21.6266 19.3613 21.6756 19.1031 21.5935 18.9031C21.2227 17.9974 20.8387 17.0957 20.4441 16.2005C20.366 16.0231 20.1343 15.896 19.9237 15.8708C19.8522 15.8629 19.7807 15.8549 19.7092 15.8496C19.5314 15.8408 19.3532 15.8426 19.1756 15.8549V15.8563Z" fill="url(#paint0_linear_551_6)"/>
<defs>
<linearGradient id="paint0_linear_551_6" x1="23.9545" y1="8.82764" x2="23.9545" y2="35.3108" gradientUnits="userSpaceOnUse">
<stop stop-color="#7D7AD8"/>
<stop offset="1" stop-color="#7D7AD8" stop-opacity="0"/>
</linearGradient>
</defs>
</svg>
