<svg width="48" height="46" viewBox="0 0 48 46" fill="none" xmlns="http://www.w3.org/2000/svg">
<path d="M47.2107 22.8049C47.2107 34.9716 37.0228 44.8742 24.4058 44.8742C11.7888 44.8742 1.60088 34.9716 1.60088 22.8049C1.60088 10.6382 11.7888 0.735642 24.4058 0.735642C37.0228 0.735642 47.2107 10.6382 47.2107 22.8049Z" stroke="#7D7AD8" stroke-width="1.47128"/>
<path d="M37.1246 17.4523C36.9822 16.9221 36.7031 16.4385 36.3151 16.05C35.9271 15.6615 35.4438 15.3817 34.9137 15.2387C32.9625 14.7139 25.1407 14.7139 25.1407 14.7139C25.1407 14.7139 17.3189 14.7139 15.3676 15.2359C14.8373 15.3785 14.3538 15.6581 13.9658 16.0466C13.5777 16.4352 13.2987 16.919 13.1568 17.4495C12.6348 19.4036 12.6348 23.4792 12.6348 23.4792C12.6348 23.4792 12.6348 27.5548 13.1568 29.506C13.4443 30.5835 14.2929 31.4322 15.3676 31.7197C17.3189 32.2445 25.1407 32.2445 25.1407 32.2445C25.1407 32.2445 32.9625 32.2445 34.9137 31.7197C35.9912 31.4322 36.8371 30.5835 37.1246 29.506C37.6466 27.5548 37.6466 23.4792 37.6466 23.4792C37.6466 23.4792 37.6466 19.4036 37.1246 17.4523ZM22.6562 27.2198V19.7386L29.1325 23.4513L22.6562 27.2198Z" fill="url(#paint0_linear_551_9)"/>
<defs>
<linearGradient id="paint0_linear_551_9" x1="25.1407" y1="14.7139" x2="25.1407" y2="32.2445" gradientUnits="userSpaceOnUse">
<stop stop-color="#7D7AD8"/>
<stop offset="1" stop-color="#7D7AD8" stop-opacity="0"/>
</linearGradient>
</defs>
</svg>
